<?xml version="1.0" encoding="UTF-8" standalone="no"?>
<!DOCTYPE svg PUBLIC "-//W3C//DTD SVG 1.1//EN"
 "http://www.w3.org/Graphics/SVG/1.1/DTD/svg11.dtd">
<!-- Generated by graphviz version 2.42.4 (0)
 -->
<!-- Title: Requirement15ClassDiagram Pages: 1 -->
<svg width="1445pt" height="676pt"
 viewBox="0.00 0.00 1444.81 676.00" xmlns="http://www.w3.org/2000/svg" xmlns:xlink="http://www.w3.org/1999/xlink">
<g id="graph0" class="graph" transform="scale(1 1) rotate(0) translate(18 658)">
<title>Requirement15ClassDiagram</title>
<polygon fill="white" stroke="transparent" points="-18,18 -18,-658 1426.81,-658 1426.81,18 -18,18"/>
<text text-anchor="middle" x="704.4" y="-620" font-family="DejaVu Sans" font-size="20.00">דרישה 15 — Class Diagram מעודכן: תיעוד החלטות מקצועיות בפרויקט</text>
<!-- legend -->
<g id="node1" class="node">
<title>legend</title>
<polygon fill="#f4fbf4" stroke="#2e7d32" points="889.31,-574 756.31,-574 756.31,-533 895.31,-533 895.31,-568 889.31,-574"/>
<polyline fill="none" stroke="#2e7d32" points="889.31,-574 889.31,-568 "/>
<polyline fill="none" stroke="#2e7d32" points="895.31,-568 889.31,-568 "/>
<text text-anchor="middle" x="825.81" y="-562" font-family="DejaVu Sans" font-size="10.00" fill="#2e7d32">מקרא:</text>
<text text-anchor="middle" x="825.81" y="-551" font-family="DejaVu Sans" font-size="10.00" fill="#2e7d32">שחור — רכיבים קיימים</text>
<text text-anchor="middle" x="825.81" y="-540" font-family="DejaVu Sans" font-size="10.00" fill="#2e7d32">ירוק — תוספות/עדכוני חלק ג&#39;</text>
</g>
<!-- User -->
<g id="node2" class="node">
<title>User</title>
<path fill="#ffffff" stroke="#2f2f2f" d="M146.31,-325C146.31,-325 251.31,-325 251.31,-325 257.31,-325 263.31,-331 263.31,-337 263.31,-337 263.31,-406 263.31,-406 263.31,-412 257.31,-418 251.31,-418 251.31,-418 146.31,-418 146.31,-418 140.31,-418 134.31,-412 134.31,-406 134.31,-406 134.31,-337 134.31,-337 134.31,-331 140.31,-325 146.31,-325"/>
<text text-anchor="middle" x="198.81" y="-406" font-family="DejaVu Sans" font-size="10.00">User</text>
<polyline fill="none" stroke="#2f2f2f" points="134.31,-399 263.31,-399 "/>
<text text-anchor="start" x="140.31" y="-387" font-family="DejaVu Sans" font-size="10.00">&#45; user_id:int</text>
<text text-anchor="start" x="140.31" y="-376" font-family="DejaVu Sans" font-size="10.00"> &#45; username:String</text>
<text text-anchor="start" x="140.31" y="-365" font-family="DejaVu Sans" font-size="10.00"> &#45; password_hash:String</text>
<text text-anchor="start" x="140.31" y="-354" font-family="DejaVu Sans" font-size="10.00"> &#45; role:RoleEnum</text>
<text text-anchor="start" x="140.31" y="-343" font-family="DejaVu Sans" font-size="10.00"> &#45; is_active:Boolean</text>
<text text-anchor="start" x="140.31" y="-332" font-family="DejaVu Sans" font-size="10.00"> &#45; created_at:DateTime</text>
</g>
<!-- RoleEnum -->
<g id="node3" class="node">
<title>RoleEnum</title>
<path fill="#ffffff" stroke="#2f2f2f" d="M143.31,-169C143.31,-169 254.31,-169 254.31,-169 260.31,-169 266.31,-175 266.31,-181 266.31,-181 266.31,-217 266.31,-217 266.31,-223 260.31,-229 254.31,-229 254.31,-229 143.31,-229 143.31,-229 137.31,-229 131.31,-223 131.31,-217 131.31,-217 131.31,-181 131.31,-181 131.31,-175 137.31,-169 143.31,-169"/>
<text text-anchor="middle" x="198.81" y="-217" font-family="DejaVu Sans" font-size="10.00">[Enumeration] RoleEnum</text>
<polyline fill="none" stroke="#2f2f2f" points="131.31,-210 266.31,-210 "/>
<text text-anchor="start" x="137.31" y="-198" font-family="DejaVu Sans" font-size="10.00">OfficeManager</text>
<text text-anchor="start" x="137.31" y="-187" font-family="DejaVu Sans" font-size="10.00"> Architect</text>
<text text-anchor="start" x="137.31" y="-176" font-family="DejaVu Sans" font-size="10.00"> Client</text>
</g>
<!-- User&#45;&gt;RoleEnum -->
<g id="edge1" class="edge">
<title>User&#45;&gt;RoleEnum</title>
<path fill="none" stroke="#424242" stroke-dasharray="5,2" d="M198.81,-324.81C198.81,-298.11 198.81,-264.75 198.81,-239.24"/>
<polygon fill="#424242" stroke="#424242" points="198.81,-229.18 203.31,-239.18 198.81,-234.18 198.81,-239.18 198.81,-239.18 198.81,-239.18 198.81,-234.18 194.31,-239.18 198.81,-229.18 198.81,-229.18"/>
<text text-anchor="middle" x="209.31" y="-272.8" font-family="DejaVu Sans" font-size="9.00">uses</text>
</g>
<!-- DecisionLog -->
<g id="node6" class="node">
<title>DecisionLog</title>
<path fill="#ffffff" stroke="#2e7d32" d="M310.31,-158C310.31,-158 419.31,-158 419.31,-158 425.31,-158 431.31,-164 431.31,-170 431.31,-170 431.31,-228 431.31,-228 431.31,-234 425.31,-240 419.31,-240 419.31,-240 310.31,-240 310.31,-240 304.31,-240 298.31,-234 298.31,-228 298.31,-228 298.31,-170 298.31,-170 298.31,-164 304.31,-158 310.31,-158"/>
<text text-anchor="middle" x="364.81" y="-228" font-family="DejaVu Sans" font-size="10.00" fill="#1b5e20">DecisionLog</text>
<polyline fill="none" stroke="#2e7d32" points="298.31,-221 431.31,-221 "/>
<text text-anchor="start" x="304.31" y="-209" font-family="DejaVu Sans" font-size="10.00" fill="#1b5e20">&#45; decision_id:int</text>
<text text-anchor="start" x="304.31" y="-198" font-family="DejaVu Sans" font-size="10.00" fill="#1b5e20"> &#45; project_id:int</text>
<text text-anchor="start" x="304.31" y="-187" font-family="DejaVu Sans" font-size="10.00" fill="#1b5e20"> &#45; created_by_user_id:int</text>
<text text-anchor="start" x="304.31" y="-176" font-family="DejaVu Sans" font-size="10.00" fill="#1b5e20"> &#45; decision_text:String</text>
<text text-anchor="start" x="304.31" y="-165" font-family="DejaVu Sans" font-size="10.00" fill="#1b5e20"> &#45; created_at:DateTime</text>
</g>
<!-- User&#45;&gt;DecisionLog -->
<g id="edge6" class="edge">
<title>User&#45;&gt;DecisionLog</title>
<path fill="none" stroke="#2e7d32" d="M236.13,-324.84C251.08,-307.24 268.77,-287.23 285.81,-270 295.73,-259.97 306.83,-249.63 317.5,-240.09"/>
<text text-anchor="middle" x="321.81" y="-272.8" font-family="DejaVu Sans" font-size="9.00" fill="#1b5e20">records &#160;1 : 0..*</text>
</g>
<!-- ChangeHistory -->
<g id="node7" class="node">
<title>ChangeHistory</title>
<path fill="#ffffff" stroke="#2e7d32" d="M544.31,-0.5C544.31,-0.5 653.31,-0.5 653.31,-0.5 659.31,-0.5 665.31,-6.5 665.31,-12.5 665.31,-12.5 665.31,-81.5 665.31,-81.5 665.31,-87.5 659.31,-93.5 653.31,-93.5 653.31,-93.5 544.31,-93.5 544.31,-93.5 538.31,-93.5 532.31,-87.5 532.31,-81.5 532.31,-81.5 532.31,-12.5 532.31,-12.5 532.31,-6.5 538.31,-0.5 544.31,-0.5"/>
<text text-anchor="middle" x="598.81" y="-81.5" font-family="DejaVu Sans" font-size="10.00" fill="#1b5e20">ChangeHistory</text>
<polyline fill="none" stroke="#2e7d32" points="532.31,-74.5 665.31,-74.5 "/>
<text text-anchor="start" x="538.31" y="-62.5" font-family="DejaVu Sans" font-size="10.00" fill="#1b5e20">&#45; change_id:int</text>
<text text-anchor="start" x="538.31" y="-51.5" font-family="DejaVu Sans" font-size="10.00" fill="#1b5e20"> &#45; project_id:int</text>
<text text-anchor="start" x="538.31" y="-40.5" font-family="DejaVu Sans" font-size="10.00" fill="#1b5e20"> &#45; decision_id:int</text>
<text text-anchor="start" x="538.31" y="-29.5" font-family="DejaVu Sans" font-size="10.00" fill="#1b5e20"> &#45; created_by_user_id:int</text>
<text text-anchor="start" x="538.31" y="-18.5" font-family="DejaVu Sans" font-size="10.00" fill="#1b5e20"> &#45; description:String</text>
<text text-anchor="start" x="538.31" y="-7.5" font-family="DejaVu Sans" font-size="10.00" fill="#1b5e20"> &#45; created_at:DateTime</text>
</g>
<!-- User&#45;&gt;ChangeHistory -->
<g id="edge7" class="edge">
<title>User&#45;&gt;ChangeHistory</title>
<path fill="none" stroke="#2e7d32" d="M134.05,-345C92.62,-324.89 42.22,-292.42 17.81,-246 -1.64,-209.02 -9.01,-184.04 17.81,-152 82.79,-74.35 393.69,-54.61 532.09,-49.64"/>
<text text-anchor="middle" x="66.31" y="-196.8" font-family="DejaVu Sans" font-size="9.00" fill="#1b5e20">creates audit &#160;1 : 0..*</text>
</g>
<!-- Project -->
<g id="node4" class="node">
<title>Project</title>
<path fill="#ffffff" stroke="#2f2f2f" d="M429.81,-304.5C429.81,-304.5 647.81,-304.5 647.81,-304.5 653.81,-304.5 659.81,-310.5 659.81,-316.5 659.81,-316.5 659.81,-426.5 659.81,-426.5 659.81,-432.5 653.81,-438.5 647.81,-438.5 647.81,-438.5 429.81,-438.5 429.81,-438.5 423.81,-438.5 417.81,-432.5 417.81,-426.5 417.81,-426.5 417.81,-316.5 417.81,-316.5 417.81,-310.5 423.81,-304.5 429.81,-304.5"/>
<text text-anchor="middle" x="538.81" y="-426.5" font-family="DejaVu Sans" font-size="10.00">Project</text>
<polyline fill="none" stroke="#2f2f2f" points="417.81,-419.5 659.81,-419.5 "/>
<text text-anchor="start" x="423.81" y="-407.5" font-family="DejaVu Sans" font-size="10.00">&#45; project_id:int</text>
<text text-anchor="start" x="423.81" y="-396.5" font-family="DejaVu Sans" font-size="10.00"> &#45; client_id:int</text>
<text text-anchor="start" x="423.81" y="-385.5" font-family="DejaVu Sans" font-size="10.00"> &#45; project_name:String</text>
<text text-anchor="start" x="423.81" y="-374.5" font-family="DejaVu Sans" font-size="10.00"> &#45; status:ProjectStatus</text>
<text text-anchor="start" x="423.81" y="-363.5" font-family="DejaVu Sans" font-size="10.00"> &#45; created_at:DateTime</text>
<text text-anchor="start" x="423.81" y="-352.5" font-family="DejaVu Sans" font-size="10.00"> &#45; updated_at:DateTime</text>
<polyline fill="none" stroke="#2f2f2f" points="417.81,-345.5 659.81,-345.5 "/>
<text text-anchor="start" x="423.81" y="-333.5" font-family="DejaVu Sans" font-size="10.00">+ available_next_statuses():List(ProjectStatus)</text>
<text text-anchor="start" x="423.81" y="-322.5" font-family="DejaVu Sans" font-size="10.00"> + can_transition_to(new_status):Boolean</text>
<text text-anchor="start" x="423.81" y="-311.5" font-family="DejaVu Sans" font-size="10.00"> + update_project_status(new_status):void</text>
</g>
<!-- ProjectStatus -->
<g id="node5" class="node">
<title>ProjectStatus</title>
<path fill="#ffffff" stroke="#2f2f2f" d="M475.81,-169C475.81,-169 601.81,-169 601.81,-169 607.81,-169 613.81,-175 613.81,-181 613.81,-181 613.81,-217 613.81,-217 613.81,-223 607.81,-229 601.81,-229 601.81,-229 475.81,-229 475.81,-229 469.81,-229 463.81,-223 463.81,-217 463.81,-217 463.81,-181 463.81,-181 463.81,-175 469.81,-169 475.81,-169"/>
<text text-anchor="middle" x="538.81" y="-217" font-family="DejaVu Sans" font-size="10.00">[Enumeration] ProjectStatus</text>
<polyline fill="none" stroke="#2f2f2f" points="463.81,-210 613.81,-210 "/>
<text text-anchor="start" x="469.81" y="-198" font-family="DejaVu Sans" font-size="10.00">Active</text>
<text text-anchor="start" x="469.81" y="-187" font-family="DejaVu Sans" font-size="10.00"> OnHold</text>
<text text-anchor="start" x="469.81" y="-176" font-family="DejaVu Sans" font-size="10.00"> Completed</text>
</g>
<!-- Project&#45;&gt;ProjectStatus -->
<g id="edge2" class="edge">
<title>Project&#45;&gt;ProjectStatus</title>
<path fill="none" stroke="#424242" stroke-dasharray="5,2" d="M538.81,-304.09C538.81,-282.16 538.81,-258.48 538.81,-239.25"/>
<polygon fill="#424242" stroke="#424242" points="538.81,-229.06 543.31,-239.06 538.81,-234.06 538.81,-239.06 538.81,-239.06 538.81,-239.06 538.81,-234.06 534.31,-239.06 538.81,-229.06 538.81,-229.06"/>
<text text-anchor="middle" x="549.31" y="-272.8" font-family="DejaVu Sans" font-size="9.00">uses</text>
</g>
<!-- Project&#45;&gt;DecisionLog -->
<g id="edge4" class="edge">
<title>Project&#45;&gt;DecisionLog</title>
<path fill="none" stroke="#2e7d32" d="M462.44,-295.67C442.94,-276.56 422.71,-256.74 405.76,-240.13"/>
<polygon fill="#2e7d32" stroke="#2e7d32" points="462.46,-295.69 469.55,-297.04 471.04,-304.09 463.95,-302.75 462.46,-295.69"/>
<text text-anchor="middle" x="477.81" y="-272.8" font-family="DejaVu Sans" font-size="9.00" fill="#1b5e20">records &#160;1 : 0..*</text>
</g>
<!-- Project&#45;&gt;ChangeHistory -->
<g id="edge5" class="edge">
<title>Project&#45;&gt;ChangeHistory</title>
<path fill="none" stroke="#2e7d32" d="M605.8,-294.19C615.67,-279.12 624.34,-262.75 629.81,-246 647.46,-191.92 641.06,-173.55 628.81,-118 627.04,-109.99 624.37,-101.76 621.34,-93.88"/>
<polygon fill="#2e7d32" stroke="#2e7d32" points="605.59,-294.5 605.5,-301.71 598.81,-304.4 598.9,-297.19 605.59,-294.5"/>
<text text-anchor="middle" x="681.81" y="-196.8" font-family="DejaVu Sans" font-size="9.00" fill="#1b5e20">maintains &#160;1 : 0..*</text>
</g>
<!-- DecisionLog&#45;&gt;ChangeHistory -->
<g id="edge8" class="edge">
<title>DecisionLog&#45;&gt;ChangeHistory</title>
<path fill="none" stroke="#2e7d32" d="M427.21,-158C459.57,-137.26 499.11,-111.91 532.07,-90.78"/>
<text text-anchor="middle" x="555.31" y="-120.8" font-family="DejaVu Sans" font-size="9.00" fill="#1b5e20">creates exactly 1 audit entry</text>
</g>
<!-- DecisionEntryStatus -->
<g id="node8" class="node">
<title>DecisionEntryStatus</title>
<path fill="#ffffff" stroke="#2e7d32" d="M1236.81,-152.5C1236.81,-152.5 1396.81,-152.5 1396.81,-152.5 1402.81,-152.5 1408.81,-158.5 1408.81,-164.5 1408.81,-164.5 1408.81,-233.5 1408.81,-233.5 1408.81,-239.5 1402.81,-245.5 1396.81,-245.5 1396.81,-245.5 1236.81,-245.5 1236.81,-245.5 1230.81,-245.5 1224.81,-239.5 1224.81,-233.5 1224.81,-233.5 1224.81,-164.5 1224.81,-164.5 1224.81,-158.5 1230.81,-152.5 1236.81,-152.5"/>
<text text-anchor="middle" x="1316.81" y="-233.5" font-family="DejaVu Sans" font-size="10.00" fill="#1b5e20">[Enumeration] DecisionEntryStatus</text>
<polyline fill="none" stroke="#2e7d32" points="1224.81,-226.5 1408.81,-226.5 "/>
<text text-anchor="start" x="1230.81" y="-214.5" font-family="DejaVu Sans" font-size="10.00" fill="#1b5e20">DecisionDraft</text>
<text text-anchor="start" x="1230.81" y="-203.5" font-family="DejaVu Sans" font-size="10.00" fill="#1b5e20"> DecisionInvalid</text>
<text text-anchor="start" x="1230.81" y="-192.5" font-family="DejaVu Sans" font-size="10.00" fill="#1b5e20"> DecisionSaving</text>
<text text-anchor="start" x="1230.81" y="-181.5" font-family="DejaVu Sans" font-size="10.00" fill="#1b5e20"> DecisionRecorded</text>
<text text-anchor="start" x="1230.81" y="-170.5" font-family="DejaVu Sans" font-size="10.00" fill="#1b5e20"> DecisionSaveFailed</text>
<text text-anchor="start" x="1230.81" y="-159.5" font-family="DejaVu Sans" font-size="10.00" fill="#1b5e20"> DecisionClosed</text>
</g>
<!-- DecisionEntrySession -->
<g id="node9" class="node">
<title>DecisionEntrySession</title>
<path fill="#ffffff" stroke="#2e7d32" d="M1183.81,-310C1183.81,-310 1349.81,-310 1349.81,-310 1355.81,-310 1361.81,-316 1361.81,-322 1361.81,-322 1361.81,-421 1361.81,-421 1361.81,-427 1355.81,-433 1349.81,-433 1349.81,-433 1183.81,-433 1183.81,-433 1177.81,-433 1171.81,-427 1171.81,-421 1171.81,-421 1171.81,-322 1171.81,-322 1171.81,-316 1177.81,-310 1183.81,-310"/>
<text text-anchor="middle" x="1266.81" y="-421" font-family="DejaVu Sans" font-size="10.00" fill="#1b5e20">DecisionEntrySession</text>
<polyline fill="none" stroke="#2e7d32" points="1171.81,-414 1361.81,-414 "/>
<text text-anchor="start" x="1177.81" y="-402" font-family="DejaVu Sans" font-size="10.00" fill="#1b5e20">&#45; status:DecisionEntryStatus</text>
<text text-anchor="start" x="1177.81" y="-391" font-family="DejaVu Sans" font-size="10.00" fill="#1b5e20"> &#45; last_error:String</text>
<polyline fill="none" stroke="#2e7d32" points="1171.81,-384 1361.81,-384 "/>
<text text-anchor="start" x="1177.81" y="-372" font-family="DejaVu Sans" font-size="10.00" fill="#1b5e20">+ return_to_draft():void</text>
<text text-anchor="start" x="1177.81" y="-361" font-family="DejaVu Sans" font-size="10.00" fill="#1b5e20"> + mark_invalid(message):void</text>
<text text-anchor="start" x="1177.81" y="-350" font-family="DejaVu Sans" font-size="10.00" fill="#1b5e20"> + begin_saving():void</text>
<text text-anchor="start" x="1177.81" y="-339" font-family="DejaVu Sans" font-size="10.00" fill="#1b5e20"> + mark_recorded():void</text>
<text text-anchor="start" x="1177.81" y="-328" font-family="DejaVu Sans" font-size="10.00" fill="#1b5e20"> + mark_save_failed(message):void</text>
<text text-anchor="start" x="1177.81" y="-317" font-family="DejaVu Sans" font-size="10.00" fill="#1b5e20"> + close():void</text>
</g>
<!-- DecisionEntrySession&#45;&gt;DecisionEntryStatus -->
<g id="edge3" class="edge">
<title>DecisionEntrySession&#45;&gt;DecisionEntryStatus</title>
<path fill="none" stroke="#2e7d32" stroke-dasharray="5,2" d="M1284.58,-309.91C1289.76,-292.23 1295.4,-272.99 1300.49,-255.63"/>
<polygon fill="#2e7d32" stroke="#2e7d32" points="1303.42,-245.65 1304.92,-256.52 1302.01,-250.45 1300.6,-255.25 1300.6,-255.25 1300.6,-255.25 1302.01,-250.45 1296.29,-253.98 1303.42,-245.65 1303.42,-245.65"/>
<text text-anchor="middle" x="1305.31" y="-272.8" font-family="DejaVu Sans" font-size="9.00" fill="#1b5e20">uses</text>
</g>
<!-- DecisionManagementForm -->
<g id="node10" class="node">
<title>DecisionManagementForm</title>
<path fill="#ffffff" stroke="#2e7d32" d="M939.31,-497.5C939.31,-497.5 1160.31,-497.5 1160.31,-497.5 1166.31,-497.5 1172.31,-503.5 1172.31,-509.5 1172.31,-509.5 1172.31,-597.5 1172.31,-597.5 1172.31,-603.5 1166.31,-609.5 1160.31,-609.5 1160.31,-609.5 939.31,-609.5 939.31,-609.5 933.31,-609.5 927.31,-603.5 927.31,-597.5 927.31,-597.5 927.31,-509.5 927.31,-509.5 927.31,-503.5 933.31,-497.5 939.31,-497.5"/>
<text text-anchor="middle" x="1049.81" y="-597.5" font-family="DejaVu Sans" font-size="10.00" fill="#1b5e20">[User Class] DecisionManagementForm</text>
<polyline fill="none" stroke="#2e7d32" points="927.31,-590.5 1172.31,-590.5 "/>
<text text-anchor="start" x="933.31" y="-578.5" font-family="DejaVu Sans" font-size="10.00" fill="#1b5e20">+ render(user:User):void</text>
<polyline fill="none" stroke="#2e7d32" points="927.31,-571.5 1172.31,-571.5 "/>
<text text-anchor="start" x="933.31" y="-559.5" font-family="DejaVu Sans" font-size="10.00" fill="#1b5e20">+ display_decision_form(user,project):void</text>
<text text-anchor="start" x="933.31" y="-548.5" font-family="DejaVu Sans" font-size="10.00" fill="#1b5e20"> + display_decisions(user,project_id):void</text>
<text text-anchor="start" x="933.31" y="-537.5" font-family="DejaVu Sans" font-size="10.00" fill="#1b5e20"> + display_change_history(user,project_id):void</text>
<text text-anchor="start" x="933.31" y="-526.5" font-family="DejaVu Sans" font-size="10.00" fill="#1b5e20"> + display_save_confirmation(message):void</text>
<text text-anchor="start" x="933.31" y="-515.5" font-family="DejaVu Sans" font-size="10.00" fill="#1b5e20"> + display_validation_error(message):void</text>
<text text-anchor="start" x="933.31" y="-504.5" font-family="DejaVu Sans" font-size="10.00" fill="#1b5e20"> + display_save_error(message):void</text>
</g>
<!-- DecisionManagementForm&#45;&gt;DecisionEntrySession -->
<g id="edge10" class="edge">
<title>DecisionManagementForm&#45;&gt;DecisionEntrySession</title>
<path fill="none" stroke="#2e7d32" stroke-dasharray="5,2" d="M1116.39,-497.27C1138.23,-479.15 1162.75,-458.81 1185.56,-439.89"/>
<polygon fill="#2e7d32" stroke="#2e7d32" points="1193.55,-433.27 1188.72,-443.12 1189.7,-436.46 1185.85,-439.65 1185.85,-439.65 1185.85,-439.65 1189.7,-436.46 1182.98,-436.19 1193.55,-433.27 1193.55,-433.27"/>
<text text-anchor="middle" x="1162.31" y="-465.8" font-family="DejaVu Sans" font-size="9.00" fill="#1b5e20">uses</text>
</g>
<!-- DecisionController -->
<g id="node11" class="node">
<title>DecisionController</title>
<path fill="#ffffff" stroke="#2e7d32" d="M753.81,-321C753.81,-321 1027.81,-321 1027.81,-321 1033.81,-321 1039.81,-327 1039.81,-333 1039.81,-333 1039.81,-410 1039.81,-410 1039.81,-416 1033.81,-422 1027.81,-422 1027.81,-422 753.81,-422 753.81,-422 747.81,-422 741.81,-416 741.81,-410 741.81,-410 741.81,-333 741.81,-333 741.81,-327 747.81,-321 753.81,-321"/>
<text text-anchor="middle" x="890.81" y="-410" font-family="DejaVu Sans" font-size="10.00" fill="#1b5e20">[System Class] DecisionController</text>
<polyline fill="none" stroke="#2e7d32" points="741.81,-403 1039.81,-403 "/>
<text text-anchor="start" x="747.81" y="-391" font-family="DejaVu Sans" font-size="10.00" fill="#1b5e20">&#45; repository:DBRepository</text>
<polyline fill="none" stroke="#2e7d32" points="741.81,-384 1039.81,-384 "/>
<text text-anchor="start" x="747.81" y="-372" font-family="DejaVu Sans" font-size="10.00" fill="#1b5e20">+ list_projects(role):ActionResult</text>
<text text-anchor="start" x="747.81" y="-361" font-family="DejaVu Sans" font-size="10.00" fill="#1b5e20"> + list_decisions(role,project_id):ActionResult</text>
<text text-anchor="start" x="747.81" y="-350" font-family="DejaVu Sans" font-size="10.00" fill="#1b5e20"> + list_changes(role,project_id):ActionResult</text>
<text text-anchor="start" x="747.81" y="-339" font-family="DejaVu Sans" font-size="10.00" fill="#1b5e20"> + save_decision(role,user_id,project_id,text):ActionResult</text>
<text text-anchor="start" x="747.81" y="-328" font-family="DejaVu Sans" font-size="10.00" fill="#1b5e20"> &#45; validate_decision_details(text):String</text>
</g>
<!-- DecisionManagementForm&#45;&gt;DecisionController -->
<g id="edge9" class="edge">
<title>DecisionManagementForm&#45;&gt;DecisionController</title>
<path fill="none" stroke="#2e7d32" stroke-dasharray="5,2" d="M1000.8,-497.03C982.03,-475.77 960.59,-451.49 941.65,-430.05"/>
<polygon fill="#2e7d32" stroke="#2e7d32" points="934.79,-422.29 944.78,-426.81 938.1,-426.04 941.41,-429.79 941.41,-429.79 941.41,-429.79 938.1,-426.04 938.04,-432.77 934.79,-422.29 934.79,-422.29"/>
<text text-anchor="middle" x="1007.81" y="-465.8" font-family="DejaVu Sans" font-size="9.00" fill="#1b5e20">sendsRequest</text>
</g>
<!-- DecisionController&#45;&gt;DecisionLog -->
<g id="edge12" class="edge">
<title>DecisionController&#45;&gt;DecisionLog</title>
<path fill="none" stroke="#2e7d32" stroke-dasharray="5,2" d="M742.99,-320.95C688.3,-303.57 625.57,-284.72 567.81,-270 515.1,-256.57 498.87,-264.74 447.81,-246 445.44,-245.13 443.06,-244.2 440.67,-243.22"/>
<polygon fill="#2e7d32" stroke="#2e7d32" points="431.47,-239.21 442.44,-239.08 436.06,-241.21 440.64,-243.21 440.64,-243.21 440.64,-243.21 436.06,-241.21 438.84,-247.33 431.47,-239.21 431.47,-239.21"/>
<text text-anchor="middle" x="622.31" y="-272.8" font-family="DejaVu Sans" font-size="9.00" fill="#1b5e20">[create]</text>
</g>
<!-- DecisionController&#45;&gt;ChangeHistory -->
<g id="edge13" class="edge">
<title>DecisionController&#45;&gt;ChangeHistory</title>
<path fill="none" stroke="#2e7d32" stroke-dasharray="5,2" d="M859.96,-320.68C830.02,-274.36 781.75,-204.77 730.81,-152 713.01,-133.56 691.88,-115.53 671.81,-99.8"/>
<polygon fill="#2e7d32" stroke="#2e7d32" points="663.88,-93.66 674.54,-96.23 667.83,-96.73 671.79,-99.79 671.79,-99.79 671.79,-99.79 667.83,-96.73 669.03,-103.34 663.88,-93.66 663.88,-93.66"/>
<text text-anchor="middle" x="826.31" y="-196.8" font-family="DejaVu Sans" font-size="9.00" fill="#1b5e20">[create]</text>
</g>
<!-- DBRepository -->
<g id="node12" class="node">
<title>DBRepository</title>
<path fill="#ffffff" stroke="#2e7d32" d="M905.31,-152.5C905.31,-152.5 1180.31,-152.5 1180.31,-152.5 1186.31,-152.5 1192.31,-158.5 1192.31,-164.5 1192.31,-164.5 1192.31,-233.5 1192.31,-233.5 1192.31,-239.5 1186.31,-245.5 1180.31,-245.5 1180.31,-245.5 905.31,-245.5 905.31,-245.5 899.31,-245.5 893.31,-239.5 893.31,-233.5 893.31,-233.5 893.31,-164.5 893.31,-164.5 893.31,-158.5 899.31,-152.5 905.31,-152.5"/>
<text text-anchor="middle" x="1042.81" y="-233.5" font-family="DejaVu Sans" font-size="10.00" fill="#1b5e20">[System Class] DBRepository</text>
<polyline fill="none" stroke="#2e7d32" points="893.31,-226.5 1192.31,-226.5 "/>
<text text-anchor="start" x="899.31" y="-214.5" font-family="DejaVu Sans" font-size="10.00" fill="#1b5e20">+ get_user(user_id):User</text>
<text text-anchor="start" x="899.31" y="-203.5" font-family="DejaVu Sans" font-size="10.00" fill="#1b5e20"> + list_projects():List(Project)</text>
<text text-anchor="start" x="899.31" y="-192.5" font-family="DejaVu Sans" font-size="10.00" fill="#1b5e20"> + get_project(project_id):Project</text>
<text text-anchor="start" x="899.31" y="-181.5" font-family="DejaVu Sans" font-size="10.00" fill="#1b5e20"> + list_decisions_by_project(project_id):List(DecisionLog)</text>
<text text-anchor="start" x="899.31" y="-170.5" font-family="DejaVu Sans" font-size="10.00" fill="#1b5e20"> + list_changes_by_project(project_id):List(ChangeHistory)</text>
<text text-anchor="start" x="899.31" y="-159.5" font-family="DejaVu Sans" font-size="10.00" fill="#1b5e20"> + save_decision_with_history(decision,history):(int, int)</text>
</g>
<!-- DecisionController&#45;&gt;DBRepository -->
<g id="edge11" class="edge">
<title>DecisionController&#45;&gt;DBRepository</title>
<path fill="none" stroke="#2e7d32" stroke-dasharray="5,2" d="M935.18,-320.73C954.07,-299.54 976.13,-274.79 995.35,-253.23"/>
<polygon fill="#2e7d32" stroke="#2e7d32" points="1002.02,-245.75 998.72,-256.21 998.69,-249.49 995.36,-253.22 995.36,-253.22 995.36,-253.22 998.69,-249.49 992.01,-250.22 1002.02,-245.75 1002.02,-245.75"/>
<text text-anchor="middle" x="987.31" y="-272.8" font-family="DejaVu Sans" font-size="9.00" fill="#1b5e20">uses</text>
</g>
</g>
</svg>
