<?xml version="1.0" encoding="UTF-8" standalone="no"?>
<!DOCTYPE svg PUBLIC "-//W3C//DTD SVG 1.1//EN"
 "http://www.w3.org/Graphics/SVG/1.1/DTD/svg11.dtd">
<!-- Generated by graphviz version 2.42.4 (0)
 -->
<!-- Title: Requirement15StateDiagram Pages: 1 -->
<svg width="1618pt" height="302pt"
 viewBox="0.00 0.00 1618.20 302.20" xmlns="http://www.w3.org/2000/svg" xmlns:xlink="http://www.w3.org/1999/xlink">
<g id="graph0" class="graph" transform="scale(1 1) rotate(0) translate(21.6 280.6)">
<title>Requirement15StateDiagram</title>
<polygon fill="white" stroke="transparent" points="-21.6,21.6 -21.6,-280.6 1596.6,-280.6 1596.6,21.6 -21.6,21.6"/>
<text text-anchor="middle" x="787.5" y="-239" font-family="DejaVu Sans" font-size="20.00">דרישה 15 — State Diagram מעודכן: DecisionEntrySession</text>
<!-- initial -->
<g id="node1" class="node">
<title>initial</title>
<ellipse fill="#000000" stroke="#000000" stroke-width="1.5" cx="6.5" cy="-112" rx="6.5" ry="6.5"/>
</g>
<!-- Draft -->
<g id="node3" class="node">
<title>Draft</title>
<path fill="#ffffff" stroke="#2e7d32" stroke-width="1.5" d="M300,-138C300,-138 156,-138 156,-138 150,-138 144,-132 144,-126 144,-126 144,-98 144,-98 144,-92 150,-86 156,-86 156,-86 300,-86 300,-86 306,-86 312,-92 312,-98 312,-98 312,-126 312,-126 312,-132 306,-138 300,-138"/>
<text text-anchor="middle" x="228" y="-126" font-family="DejaVu Sans" font-size="10.00">DecisionDraft</text>
<text text-anchor="middle" x="228" y="-115" font-family="DejaVu Sans" font-size="10.00">&#45;&#45;&#45;&#45;&#45;&#45;&#45;&#45;&#45;&#45;&#45;&#45;&#45;&#45;&#45;&#45;&#45;&#45;&#45;&#45;&#45;&#45;&#45;&#45;&#45;</text>
<text text-anchor="middle" x="228" y="-104" font-family="DejaVu Sans" font-size="10.00">entry / display_decision_form()</text>
<text text-anchor="middle" x="228" y="-93" font-family="DejaVu Sans" font-size="10.00">do / insertDecisionDetails()</text>
</g>
<!-- initial&#45;&gt;Draft -->
<g id="edge1" class="edge">
<title>initial&#45;&gt;Draft</title>
<path fill="none" stroke="#2e7d32" stroke-width="1.2" d="M13.37,-112C30.88,-112 84.57,-112 133.74,-112"/>
<polygon fill="#2e7d32" stroke="#2e7d32" stroke-width="1.2" points="133.82,-115.5 143.82,-112 133.82,-108.5 133.82,-115.5"/>
<text text-anchor="middle" x="78.5" y="-114.8" font-family="DejaVu Sans" font-size="9.00">openDecisionForm</text>
</g>
<!-- final -->
<g id="node2" class="node">
<title>final</title>
<ellipse fill="#ffffff" stroke="#000000" stroke-width="1.5" cx="1562.5" cy="-124" rx="8.5" ry="8.5"/>
<ellipse fill="none" stroke="#000000" stroke-width="1.5" cx="1562.5" cy="-124" rx="12.5" ry="12.5"/>
</g>
<!-- Invalid -->
<g id="node4" class="node">
<title>Invalid</title>
<path fill="#ffffff" stroke="#2e7d32" stroke-width="1.5" d="M719,-207C719,-207 576,-207 576,-207 570,-207 564,-201 564,-195 564,-195 564,-167 564,-167 564,-161 570,-155 576,-155 576,-155 719,-155 719,-155 725,-155 731,-161 731,-167 731,-167 731,-195 731,-195 731,-201 725,-207 719,-207"/>
<text text-anchor="middle" x="647.5" y="-195" font-family="DejaVu Sans" font-size="10.00">DecisionInvalid</text>
<text text-anchor="middle" x="647.5" y="-184" font-family="DejaVu Sans" font-size="10.00">&#45;&#45;&#45;&#45;&#45;&#45;&#45;&#45;&#45;&#45;&#45;&#45;&#45;&#45;&#45;&#45;&#45;&#45;&#45;&#45;&#45;&#45;&#45;&#45;&#45;</text>
<text text-anchor="middle" x="647.5" y="-173" font-family="DejaVu Sans" font-size="10.00">entry / mark_invalid(message)</text>
<text text-anchor="middle" x="647.5" y="-162" font-family="DejaVu Sans" font-size="10.00">do / display_validation_error()</text>
</g>
<!-- Draft&#45;&gt;Invalid -->
<g id="edge2" class="edge">
<title>Draft&#45;&gt;Invalid</title>
<path fill="none" stroke="#2e7d32" stroke-width="1.2" d="M290.1,-138C304.9,-143.41 320.83,-148.52 336,-152 407.98,-168.51 491.41,-175.66 553.65,-178.73"/>
<polygon fill="#2e7d32" stroke="#2e7d32" stroke-width="1.2" points="553.69,-182.24 563.84,-179.21 554.02,-175.25 553.69,-182.24"/>
<text text-anchor="middle" x="435" y="-189.8" font-family="DejaVu Sans" font-size="9.00">saveDecision</text>
<text text-anchor="middle" x="435" y="-179.8" font-family="DejaVu Sans" font-size="9.00">[decisionText missing OR project not found]</text>
</g>
<!-- Saving -->
<g id="node5" class="node">
<title>Saving</title>
<path fill="#ffffff" stroke="#2e7d32" stroke-width="1.5" d="M725,-117C725,-117 570,-117 570,-117 564,-117 558,-111 558,-105 558,-105 558,-77 558,-77 558,-71 564,-65 570,-65 570,-65 725,-65 725,-65 731,-65 737,-71 737,-77 737,-77 737,-105 737,-105 737,-111 731,-117 725,-117"/>
<text text-anchor="middle" x="647.5" y="-105" font-family="DejaVu Sans" font-size="10.00">DecisionSaving</text>
<text text-anchor="middle" x="647.5" y="-94" font-family="DejaVu Sans" font-size="10.00">&#45;&#45;&#45;&#45;&#45;&#45;&#45;&#45;&#45;&#45;&#45;&#45;&#45;&#45;&#45;&#45;&#45;&#45;&#45;&#45;&#45;&#45;&#45;&#45;&#45;</text>
<text text-anchor="middle" x="647.5" y="-83" font-family="DejaVu Sans" font-size="10.00">entry / begin_saving()</text>
<text text-anchor="middle" x="647.5" y="-72" font-family="DejaVu Sans" font-size="10.00">do / save_decision_with_history()</text>
</g>
<!-- Draft&#45;&gt;Saving -->
<g id="edge4" class="edge">
<title>Draft&#45;&gt;Saving</title>
<path fill="none" stroke="#2e7d32" stroke-width="1.2" d="M309.98,-85.96C318.69,-83.94 327.48,-82.21 336,-81 406.31,-71.02 486.43,-73.95 547.68,-79.15"/>
<polygon fill="#2e7d32" stroke="#2e7d32" stroke-width="1.2" points="547.46,-82.65 557.72,-80.04 548.07,-75.67 547.46,-82.65"/>
<text text-anchor="middle" x="435" y="-93.8" font-family="DejaVu Sans" font-size="9.00">saveDecision</text>
<text text-anchor="middle" x="435" y="-83.8" font-family="DejaVu Sans" font-size="9.00">[details valid AND project exists]</text>
</g>
<!-- Invalid&#45;&gt;Draft -->
<g id="edge3" class="edge">
<title>Invalid&#45;&gt;Draft</title>
<path fill="none" stroke="#2e7d32" stroke-width="1.2" d="M581.86,-154.95C566.4,-149.58 549.79,-144.5 534,-141 464.05,-125.49 383.26,-118.27 322.41,-114.92"/>
<polygon fill="#2e7d32" stroke="#2e7d32" stroke-width="1.2" points="322.23,-111.4 312.06,-114.37 321.86,-118.39 322.23,-111.4"/>
<text text-anchor="middle" x="435" y="-143.8" font-family="DejaVu Sans" font-size="9.00">correctDecisionDetails / return_to_draft()</text>
</g>
<!-- Recorded -->
<g id="node6" class="node">
<title>Recorded</title>
<path fill="#ffffff" stroke="#2e7d32" stroke-width="1.5" d="M1176.5,-161C1176.5,-161 1024.5,-161 1024.5,-161 1018.5,-161 1012.5,-155 1012.5,-149 1012.5,-149 1012.5,-99 1012.5,-99 1012.5,-93 1018.5,-87 1024.5,-87 1024.5,-87 1176.5,-87 1176.5,-87 1182.5,-87 1188.5,-93 1188.5,-99 1188.5,-99 1188.5,-149 1188.5,-149 1188.5,-155 1182.5,-161 1176.5,-161"/>
<text text-anchor="middle" x="1100.5" y="-149" font-family="DejaVu Sans" font-size="10.00">DecisionRecorded</text>
<text text-anchor="middle" x="1100.5" y="-138" font-family="DejaVu Sans" font-size="10.00">&#45;&#45;&#45;&#45;&#45;&#45;&#45;&#45;&#45;&#45;&#45;&#45;&#45;&#45;&#45;&#45;&#45;&#45;&#45;&#45;&#45;&#45;&#45;&#45;&#45;</text>
<text text-anchor="middle" x="1100.5" y="-127" font-family="DejaVu Sans" font-size="10.00">entry / mark_recorded()</text>
<text text-anchor="middle" x="1100.5" y="-116" font-family="DejaVu Sans" font-size="10.00">do / display_save_confirmation()</text>
<text text-anchor="middle" x="1100.5" y="-105" font-family="DejaVu Sans" font-size="10.00">do / display_decisions()</text>
<text text-anchor="middle" x="1100.5" y="-94" font-family="DejaVu Sans" font-size="10.00">do / display_change_history()</text>
</g>
<!-- Saving&#45;&gt;Recorded -->
<g id="edge5" class="edge">
<title>Saving&#45;&gt;Recorded</title>
<path fill="none" stroke="#2e7d32" stroke-width="1.2" d="M737.06,-97.48C813.29,-103.06 923.13,-111.09 1001.88,-116.86"/>
<polygon fill="#2e7d32" stroke="#2e7d32" stroke-width="1.2" points="1002.06,-120.38 1012.29,-117.62 1002.57,-113.4 1002.06,-120.38"/>
<text text-anchor="middle" x="839" y="-113.8" font-family="DejaVu Sans" font-size="9.00">saveSucceeded / mark_recorded()</text>
</g>
<!-- Failed -->
<g id="node7" class="node">
<title>Failed</title>
<path fill="#ffffff" stroke="#2e7d32" stroke-width="1.5" d="M1183.5,-52C1183.5,-52 1017.5,-52 1017.5,-52 1011.5,-52 1005.5,-46 1005.5,-40 1005.5,-40 1005.5,-12 1005.5,-12 1005.5,-6 1011.5,0 1017.5,0 1017.5,0 1183.5,0 1183.5,0 1189.5,0 1195.5,-6 1195.5,-12 1195.5,-12 1195.5,-40 1195.5,-40 1195.5,-46 1189.5,-52 1183.5,-52"/>
<text text-anchor="middle" x="1100.5" y="-40" font-family="DejaVu Sans" font-size="10.00">DecisionSaveFailed</text>
<text text-anchor="middle" x="1100.5" y="-29" font-family="DejaVu Sans" font-size="10.00">&#45;&#45;&#45;&#45;&#45;&#45;&#45;&#45;&#45;&#45;&#45;&#45;&#45;&#45;&#45;&#45;&#45;&#45;&#45;&#45;&#45;&#45;&#45;&#45;&#45;</text>
<text text-anchor="middle" x="1100.5" y="-18" font-family="DejaVu Sans" font-size="10.00">entry / mark_save_failed(message)</text>
<text text-anchor="middle" x="1100.5" y="-7" font-family="DejaVu Sans" font-size="10.00">do / display_save_error()</text>
</g>
<!-- Saving&#45;&gt;Failed -->
<g id="edge6" class="edge">
<title>Saving&#45;&gt;Failed</title>
<path fill="none" stroke="#a33a3a" stroke-width="1.2" d="M737.06,-78.24C811.09,-67.57 916.79,-52.33 994.95,-41.07"/>
<polygon fill="#a33a3a" stroke="#a33a3a" stroke-width="1.2" points="995.91,-44.47 1005.31,-39.58 994.91,-37.54 995.91,-44.47"/>
<text text-anchor="middle" x="839" y="-76.8" font-family="DejaVu Sans" font-size="9.00" fill="#a33a3a">saveFailed / mark_save_failed()</text>
</g>
<!-- Closed -->
<g id="node8" class="node">
<title>Closed</title>
<path fill="#ffffff" stroke="#2e7d32" stroke-width="1.5" d="M1489,-144.5C1489,-144.5 1403,-144.5 1403,-144.5 1397,-144.5 1391,-138.5 1391,-132.5 1391,-132.5 1391,-115.5 1391,-115.5 1391,-109.5 1397,-103.5 1403,-103.5 1403,-103.5 1489,-103.5 1489,-103.5 1495,-103.5 1501,-109.5 1501,-115.5 1501,-115.5 1501,-132.5 1501,-132.5 1501,-138.5 1495,-144.5 1489,-144.5"/>
<text text-anchor="middle" x="1446" y="-132.5" font-family="DejaVu Sans" font-size="10.00">DecisionClosed</text>
<text text-anchor="middle" x="1446" y="-121.5" font-family="DejaVu Sans" font-size="10.00">&#45;&#45;&#45;&#45;&#45;&#45;&#45;&#45;&#45;&#45;&#45;&#45;&#45;&#45;&#45;&#45;&#45;&#45;&#45;&#45;&#45;&#45;&#45;&#45;&#45;</text>
<text text-anchor="middle" x="1446" y="-110.5" font-family="DejaVu Sans" font-size="10.00">entry / close()</text>
</g>
<!-- Recorded&#45;&gt;Closed -->
<g id="edge8" class="edge">
<title>Recorded&#45;&gt;Closed</title>
<path fill="none" stroke="#2e7d32" stroke-width="1.2" d="M1188.62,-124C1248.47,-124 1326.59,-124 1380.8,-124"/>
<polygon fill="#2e7d32" stroke="#2e7d32" stroke-width="1.2" points="1380.97,-127.5 1390.97,-124 1380.97,-120.5 1380.97,-127.5"/>
<text text-anchor="middle" x="1325.5" y="-126.8" font-family="DejaVu Sans" font-size="9.00">closeDecisionForm</text>
</g>
<!-- Failed&#45;&gt;Draft -->
<g id="edge7" class="edge">
<title>Failed&#45;&gt;Draft</title>
<path fill="none" stroke="#a33a3a" stroke-width="1.2" d="M1005.3,-18.73C859.18,-10.18 570.32,-4.22 336,-67 321.61,-70.86 306.6,-76.24 292.54,-81.94"/>
<polygon fill="#a33a3a" stroke="#a33a3a" stroke-width="1.2" points="290.86,-78.85 282.98,-85.93 293.55,-85.31 290.86,-78.85"/>
<text text-anchor="middle" x="647.5" y="-29.8" font-family="DejaVu Sans" font-size="9.00" fill="#a33a3a">retrySave / return_to_draft()</text>
</g>
<!-- Closed&#45;&gt;final -->
<g id="edge9" class="edge">
<title>Closed&#45;&gt;final</title>
<path fill="none" stroke="#2e7d32" stroke-width="1.2" d="M1501.23,-124C1514.79,-124 1528.57,-124 1539.53,-124"/>
<polygon fill="#2e7d32" stroke="#2e7d32" stroke-width="1.2" points="1539.8,-127.5 1549.8,-124 1539.8,-120.5 1539.8,-127.5"/>
</g>
<!-- note -->
<g id="node9" class="node">
<title>note</title>
<polygon fill="#f4fbf4" stroke="#2e7d32" stroke-width="1.5" points="1254,-229 941,-229 941,-193 1260,-193 1260,-223 1254,-229"/>
<polyline fill="none" stroke="#2e7d32" stroke-width="1.5" points="1254,-229 1254,-223 "/>
<polyline fill="none" stroke="#2e7d32" stroke-width="1.5" points="1260,-223 1254,-223 "/>
<text text-anchor="middle" x="1100.5" y="-214" font-family="DejaVu Sans" font-size="10.00" fill="#1b5e20">DecisionEntrySession is a temporary GUI&#45;process object.</text>
<text text-anchor="middle" x="1100.5" y="-203" font-family="DejaVu Sans" font-size="10.00" fill="#1b5e20">DecisionLog is the persistent business record saved in SQLite.</text>
</g>
</g>
</svg>
